<?xml version="1.0" encoding="UTF-8"?>
<!DOCTYPE svg PUBLIC "-//W3C//DTD SVG 1.1//EN" "http://www.w3.org/Graphics/SVG/1.1/DTD/svg11.dtd">
<svg fill="#5885ee" xmlns="http://www.w3.org/2000/svg" xml:space="preserve" width="100mm" height="46.0053mm" version="1.1" style="shape-rendering:geometricPrecision; text-rendering:geometricPrecision; image-rendering:optimizeQuality; fill-rule:evenodd; clip-rule:evenodd" viewBox="0 0 5618 2585" xmlns:xlink="http://www.w3.org/1999/xlink">
    <g>
        <path class="fil0" d="M381 2081l-371 -2 0 -1240 982 0 -4 1234 -371 -1 0 -885 -231 -1 -5 895zm840 -1242l369 0 2 536 342 -506 324 -497 -11 1700 -362 -1 -3 -540 -361 542 -300 -2 0 -1232zm1635 1233l-372 -1 -12 -1934 382 738 -1 360 237 -396 402 0 -389 613 413 619 -436 2 -225 -377 1 376z"/>
        <path class="fil0" d="M3025 106c7,0 14,2 20,5 6,3 12,7 18,12 5,5 10,8 13,11 3,3 5,4 7,4 2,0 5,0 7,-2 3,-1 5,-2 7,-2 5,0 9,4 14,14 5,9 9,22 12,39 3,18 4,38 4,61 0,20 -2,36 -8,49 -5,13 -12,20 -21,20 -7,0 -12,-4 -15,-11 -3,-7 -8,-21 -14,-42 -7,-21 -14,-37 -21,-48 -7,-10 -17,-15 -30,-15 -7,0 -14,4 -19,13 -5,8 -9,18 -11,31 -3,13 -4,26 -4,39 0,33 3,62 8,90 6,28 13,49 24,65 10,17 22,25 37,25 9,0 16,-2 22,-7 6,-4 12,-9 16,-16 5,-7 8,-12 11,-16 2,-4 4,-7 6,-7 3,0 5,2 8,6 2,4 3,9 4,15 1,6 2,12 2,18 0,10 -2,22 -5,36 -2,15 -6,27 -11,37 -5,11 -10,16 -14,16 -3,0 -8,4 -16,11 -8,8 -17,14 -25,19 -8,6 -18,8 -29,8 -22,0 -42,-11 -60,-32 -19,-22 -33,-51 -44,-89 -10,-37 -16,-77 -16,-119 0,-33 4,-64 10,-93 7,-29 17,-55 28,-76 12,-22 25,-39 40,-51 14,-12 29,-18 45,-18zm220 359c-2,0 -6,-1 -11,-2 -5,-2 -9,-3 -11,-3 -8,0 -13,0 -17,0 -4,1 -8,1 -11,2 -3,0 -4,1 -4,1 -3,0 -5,-2 -7,-6 -2,-4 -3,-9 -3,-14 0,-8 2,-21 5,-40 3,-19 6,-33 8,-42 2,-9 4,-15 7,-18 2,-3 5,-5 10,-5 2,0 6,1 11,2 5,2 9,3 12,3 7,0 12,0 17,0 4,-1 7,-1 10,-2 3,0 4,-1 5,-1 2,0 4,2 6,6 2,3 3,8 3,14 0,5 -1,13 -2,24 -2,11 -4,23 -6,35 -3,12 -4,20 -5,22 -2,9 -4,15 -6,19 -3,3 -6,5 -11,5zm242 -277c-4,4 -6,11 -8,20 -1,8 -1,27 -1,55l0 174c0,20 1,35 2,45 2,9 5,17 8,22 4,6 6,10 7,12 2,2 2,8 2,18 0,19 -6,32 -20,39 -13,6 -27,9 -41,9 -13,0 -26,-3 -39,-9 -13,-6 -19,-19 -19,-38 0,-12 4,-21 10,-27 5,-5 8,-10 10,-15 2,-5 3,-17 4,-36 1,-19 2,-51 2,-96 0,-50 0,-84 -1,-103 0,-19 0,-33 -1,-42 -1,-10 -2,-15 -3,-17 -1,-3 -4,-6 -8,-11 -4,-5 -7,-9 -9,-11 -1,-3 -2,-7 -2,-13 0,-22 8,-37 23,-44 16,-8 32,-12 47,-12 4,0 14,1 30,2 16,2 28,3 35,3 6,0 15,-1 28,-3 12,-1 24,-2 34,-2 38,0 57,16 57,47 0,14 -4,24 -10,30 -4,4 -7,8 -8,12 -2,4 -3,13 -4,28 -1,16 -1,39 -1,71l0 171c0,7 0,13 1,17 0,5 1,9 2,12 2,4 4,7 7,10 4,4 6,8 8,12 2,3 2,8 2,16 0,5 0,11 -1,16 -1,5 -3,10 -7,15 -4,5 -11,9 -20,12 -8,4 -20,5 -34,5 -36,0 -54,-15 -54,-44 0,-12 2,-21 7,-28 5,-6 8,-15 11,-27 3,-12 4,-36 4,-73l0 -142c0,-17 0,-31 -1,-42 -1,-10 -1,-18 -2,-23 -1,-5 -2,-9 -3,-11 -1,-2 -2,-3 -3,-4 -2,-2 -8,-3 -21,-3 -12,0 -18,1 -20,3zm283 236c-3,0 -5,1 -6,2 -2,1 -2,3 -2,8 0,10 2,20 5,29 4,9 9,17 14,22 6,6 11,9 16,9 7,0 13,-2 18,-6 5,-4 9,-9 14,-15 5,-6 8,-9 10,-9 3,0 6,4 8,11 3,8 4,15 4,22 0,12 -2,23 -7,34 -5,11 -11,20 -18,28 -7,8 -15,14 -24,18 -8,5 -16,7 -24,7 -13,0 -25,-4 -36,-14 -11,-9 -20,-22 -27,-38 -8,-17 -13,-35 -17,-55 -4,-20 -5,-41 -5,-63 0,-24 2,-47 7,-69 4,-21 11,-40 19,-56 8,-15 17,-27 28,-36 11,-9 22,-13 34,-13 12,0 24,4 33,13 10,10 19,21 25,35 6,14 11,28 14,44 3,15 5,30 5,43 0,20 -2,33 -5,39 -4,7 -9,10 -15,10l-68 0zm28 -82c0,-12 -2,-22 -5,-30 -4,-8 -8,-12 -14,-12 -5,0 -10,5 -13,14 -4,9 -6,18 -6,29 0,8 1,13 3,15 2,3 5,4 8,4 2,0 3,0 4,0 1,0 2,0 4,0l7 0c3,0 6,-2 8,-4 3,-3 4,-8 4,-16zm266 -101c4,-2 8,-3 14,-3 5,0 10,5 15,14 6,9 10,22 13,37 4,16 6,32 6,49 0,15 -2,27 -6,36 -4,9 -10,13 -17,13 -4,0 -7,-3 -10,-8 -3,-5 -6,-13 -9,-23 -4,-10 -6,-17 -8,-22 -1,-4 -3,-6 -5,-6 -5,0 -7,1 -8,4 -1,2 -2,6 -2,12 0,11 0,26 0,46 0,8 0,22 0,41 0,20 0,35 1,45 0,8 1,14 2,19 2,4 4,8 7,12 3,4 6,9 7,13 2,3 3,10 3,18 0,8 -3,16 -8,23 -4,7 -11,12 -19,16 -8,4 -17,5 -26,5 -3,0 -8,-1 -17,-2 -9,0 -17,-2 -23,-4 -6,-2 -12,-6 -17,-12 -5,-6 -8,-15 -8,-26 0,-9 1,-15 3,-19 2,-4 4,-7 8,-10 3,-3 6,-7 8,-12 2,-5 3,-13 3,-24 0,-10 0,-19 1,-27 0,-9 0,-19 0,-32 0,-23 0,-40 -1,-52 0,-11 0,-20 -1,-25 -1,-6 -4,-9 -7,-9 -3,0 -5,2 -7,6 -2,5 -4,12 -8,22 -4,10 -8,18 -11,23 -3,5 -6,8 -10,8 -6,0 -11,-4 -14,-13 -3,-8 -5,-19 -5,-31 0,-26 4,-49 10,-71 6,-22 15,-33 27,-34 6,0 10,1 12,3 7,6 25,8 55,8 24,0 41,-2 52,-8zm172 183c-3,0 -5,1 -7,2 -1,1 -2,3 -2,8 0,10 2,20 6,29 4,9 8,17 14,22 5,6 11,9 16,9 7,0 12,-2 17,-6 5,-4 10,-9 15,-15 5,-6 8,-9 9,-9 4,0 6,4 9,11 2,8 4,15 4,22 0,12 -3,23 -7,34 -5,11 -11,20 -18,28 -8,8 -16,14 -24,18 -9,5 -17,7 -24,7 -13,0 -26,-4 -36,-14 -11,-9 -20,-22 -28,-38 -7,-17 -13,-35 -16,-55 -4,-20 -6,-41 -6,-63 0,-24 3,-47 7,-69 5,-21 12,-40 20,-56 8,-15 17,-27 28,-36 10,-9 22,-13 34,-13 12,0 23,4 33,13 10,10 18,21 25,35 6,14 11,28 14,44 3,15 5,30 5,43 0,20 -2,33 -6,39 -3,7 -8,10 -14,10l-68 0zm27 -82c0,-12 -1,-22 -5,-30 -3,-8 -7,-12 -13,-12 -5,0 -10,5 -14,14 -3,9 -5,18 -5,29 0,8 1,13 3,15 2,3 5,4 8,4 1,0 3,0 4,0 1,0 2,0 4,0l6 0c4,0 7,-2 9,-4 2,-3 3,-8 3,-16zm142 103c0,-53 -1,-82 -3,-87 -1,-2 -3,-4 -6,-5 -3,-1 -6,-3 -8,-4 -2,-2 -4,-5 -5,-9 -2,-5 -3,-11 -3,-19 0,-14 6,-27 17,-39 10,-12 23,-22 37,-29 15,-7 26,-11 34,-11 4,0 7,1 8,4 1,3 1,8 1,16 0,9 1,14 4,14 1,0 4,-4 9,-11 6,-7 12,-13 18,-18 6,-5 13,-7 20,-7 10,0 19,4 27,14 8,9 15,21 20,37 6,16 10,33 12,53 3,19 5,39 5,59 0,30 -4,59 -10,86 -6,28 -15,51 -27,69 -11,18 -24,26 -39,26 -4,0 -8,-1 -13,-3 -4,-3 -8,-5 -13,-8 -4,-4 -6,-5 -6,-5 -4,0 -6,7 -6,21 0,11 1,19 3,25 2,6 4,11 7,15 4,4 6,8 8,11 1,3 2,8 2,15 0,16 -4,27 -13,33 -9,6 -18,8 -28,8 -13,0 -26,-3 -37,-9 -12,-6 -21,-14 -28,-25 -7,-10 -10,-20 -10,-31 0,-9 1,-14 2,-16 1,-2 4,-6 8,-11 5,-5 7,-11 9,-17 1,-8 2,-18 3,-33 1,-14 1,-38 1,-73l0 -36zm86 -107c-3,0 -6,1 -7,3 -2,3 -4,8 -5,16 -1,8 -2,22 -2,40 -1,19 -1,42 -1,70 0,10 1,18 4,22 2,5 6,7 12,7 15,0 22,-25 22,-75 0,-14 -1,-26 -2,-39 -1,-12 -3,-23 -7,-31 -3,-9 -8,-13 -14,-13zm200 -32c6,-13 12,-24 19,-34 7,-10 15,-18 24,-24 9,-5 18,-8 27,-8 14,0 26,5 36,14 11,10 20,23 28,40 7,17 13,36 17,56 4,20 5,40 5,61 0,26 -2,50 -7,71 -5,22 -12,40 -21,55 -9,16 -19,27 -30,35 -11,8 -22,12 -33,12 -17,0 -32,-6 -45,-19 -14,-13 -25,-34 -35,-61 -9,-27 -15,-61 -18,-100 -3,-36 -4,-68 -4,-94 0,-25 1,-49 4,-71 2,-21 6,-42 12,-63 5,-20 13,-40 22,-59 8,-16 17,-29 27,-39 10,-11 20,-19 29,-25 10,-6 20,-12 30,-17 10,-5 16,-9 18,-11 6,-5 10,-10 13,-14 2,-4 5,-8 6,-10 1,-1 1,-1 2,-1 2,0 4,2 6,5 3,3 4,6 5,10 2,6 2,14 2,25 0,18 -2,37 -7,57 -5,20 -14,39 -26,55 -3,5 -7,9 -12,14 -5,4 -11,8 -17,12 -7,5 -13,9 -19,13 -6,3 -11,7 -16,11 -12,10 -21,24 -29,42 -9,19 -13,40 -13,62zm57 11c-5,0 -9,4 -12,12 -2,8 -4,17 -4,28 1,33 4,66 8,96 5,31 11,47 21,49 10,0 14,-14 14,-41 0,-13 -1,-31 -2,-54 -2,-24 -5,-44 -9,-63 -4,-18 -10,-27 -16,-27zm291 203c-7,36 -13,66 -20,90 -7,24 -15,43 -26,59 -11,16 -25,24 -41,24 -13,0 -24,-7 -34,-21 -10,-14 -15,-33 -15,-58 0,-17 3,-31 8,-43 5,-12 12,-18 20,-18 8,0 14,4 17,13 3,8 5,20 8,35 2,15 5,22 9,22 4,0 7,-3 9,-10 2,-6 3,-14 3,-22 0,-8 -1,-17 -3,-27 -2,-9 -4,-20 -7,-33l-44 -192c-1,-6 -3,-10 -5,-13 -3,-3 -5,-7 -9,-10 -3,-3 -6,-7 -8,-10 -1,-4 -2,-9 -2,-16 0,-13 5,-25 14,-34 9,-9 28,-14 58,-14 10,0 19,3 28,8 8,5 12,16 12,32 0,4 0,7 -1,9 0,3 -1,7 -3,11 -1,5 -2,8 -2,10 -1,2 -1,5 -1,9 0,11 2,26 7,44 5,18 9,27 12,27 4,0 8,-8 11,-24 3,-15 5,-28 5,-38 0,-6 0,-12 -1,-16 -1,-4 -2,-8 -3,-10 -2,-3 -3,-6 -4,-10 -1,-4 -2,-9 -2,-13 0,-15 4,-26 13,-31 9,-5 18,-8 28,-8 8,0 16,2 23,7 7,5 10,13 10,26 0,9 0,15 -2,19 -2,4 -5,8 -9,12 -4,3 -7,7 -10,11 -3,4 -6,10 -8,19 -5,16 -11,42 -17,77l-18 107zm136 -75c0,-53 -1,-82 -4,-87 0,-2 -2,-4 -5,-5 -3,-1 -6,-3 -8,-4 -2,-2 -4,-5 -5,-9 -2,-5 -3,-11 -3,-19 0,-14 6,-27 16,-39 11,-12 24,-22 38,-29 15,-7 26,-11 34,-11 4,0 6,1 7,4 1,3 2,8 2,16 0,9 1,14 4,14 0,0 4,-4 9,-11 6,-7 12,-13 18,-18 6,-5 12,-7 20,-7 10,0 19,4 27,14 8,9 14,21 20,37 5,16 9,33 12,53 3,19 4,39 4,59 0,30 -3,59 -9,86 -7,28 -16,51 -27,69 -12,18 -25,26 -39,26 -4,0 -9,-1 -13,-3 -4,-3 -9,-5 -13,-8 -4,-4 -6,-5 -7,-5 -3,0 -5,7 -5,21 0,11 1,19 3,25 1,6 4,11 7,15 3,4 6,8 7,11 2,3 3,8 3,15 0,16 -5,27 -13,33 -9,6 -18,8 -28,8 -14,0 -26,-3 -38,-9 -11,-6 -20,-14 -27,-25 -7,-10 -10,-20 -10,-31 0,-9 1,-14 2,-16 1,-2 4,-6 8,-11 4,-5 7,-11 9,-17 1,-8 2,-18 3,-33 1,-14 1,-38 1,-73l0 -36zm86 -107c-3,0 -6,1 -7,3 -2,3 -4,8 -5,16 -1,8 -2,22 -2,40 -1,19 -1,42 -1,70 0,10 1,18 4,22 2,5 6,7 12,7 14,0 22,-25 22,-75 0,-14 -1,-26 -2,-39 -1,-12 -4,-23 -7,-31 -3,-9 -8,-13 -14,-13zm310 -100c5,0 11,5 16,14 5,9 10,21 13,37 4,15 5,32 5,49 0,15 -2,27 -5,36 -4,8 -10,13 -17,13 -6,0 -11,-8 -17,-24 -6,-17 -12,-29 -16,-36 -4,-8 -12,-11 -22,-11 -5,0 -8,0 -11,2 -2,2 -4,5 -5,9 -2,5 -3,24 -3,57 0,43 2,75 5,97 1,8 2,12 4,15 1,2 4,6 8,11 3,4 6,9 8,14 2,5 2,12 2,22 0,16 -5,26 -17,32 -12,5 -26,7 -42,7l-11 0c-7,0 -14,0 -20,-2 -6,-1 -12,-5 -17,-10 -5,-6 -8,-15 -8,-27 0,-7 2,-14 5,-20 3,-6 6,-11 7,-16 2,-5 3,-16 3,-32l0 -123c0,-11 -1,-20 -2,-26 -2,-6 -4,-11 -6,-16 -3,-5 -5,-9 -6,-12 0,-2 -1,-7 -1,-13 0,-17 5,-28 14,-33 9,-4 19,-7 31,-7 3,0 10,1 21,2 11,2 21,2 28,2 8,0 17,-2 28,-5 11,-4 20,-6 28,-6z"/>
        <path class="fil0" d="M39 2317l0 176 -39 0 0 -212 170 0 0 212 -39 0 0 -176 -92 0zm212 69c0,20 7,37 21,52 13,15 30,22 49,22 20,0 37,-7 50,-21 14,-14 21,-31 21,-51 0,-20 -7,-38 -20,-52 -14,-15 -31,-22 -51,-22 -19,0 -35,7 -49,22 -14,15 -21,31 -21,50zm74 113c-28,0 -52,-10 -72,-30l0 116 -39 0 0 -304 39 0 0 25c20,-20 43,-30 69,-30 32,0 58,11 79,32 21,22 32,48 32,80 0,22 -6,43 -18,62 -12,19 -27,33 -47,41 -12,5 -27,8 -43,8zm171 -112c0,20 7,37 20,51 13,14 29,22 49,22 20,0 36,-8 49,-22 13,-14 20,-31 20,-51 0,-21 -7,-38 -20,-53 -13,-14 -30,-21 -50,-21 -20,0 -36,7 -49,21 -13,15 -19,32 -19,53zm179 -3c0,31 -11,58 -32,80 -22,23 -48,35 -78,35 -30,0 -56,-11 -78,-33 -21,-22 -32,-48 -32,-79 0,-30 11,-57 32,-79 21,-23 46,-35 76,-35 30,0 56,11 78,33 22,22 34,48 34,78zm68 109l-36 0 0 -212 39 0 0 150 109 -150 36 0 0 212 -39 0 0 -151 -109 151zm180 -67l42 0c0,11 4,20 13,27 8,7 18,10 30,10 32,0 47,-10 47,-30 0,-15 -8,-25 -23,-29 -8,-3 -22,-4 -41,-4l0 -33c18,0 31,-1 38,-3 14,-4 21,-13 21,-27 0,-10 -5,-17 -13,-22 -7,-4 -16,-6 -26,-6 -28,0 -41,11 -41,31l-41 0c0,-22 9,-39 26,-51 15,-11 33,-16 56,-16 22,0 39,5 54,15 17,12 25,28 25,49 0,21 -11,36 -34,43 12,4 21,11 29,21 7,9 11,20 11,32 0,9 -3,17 -7,25 -8,13 -20,23 -35,31 -14,7 -29,10 -45,10 -23,0 -43,-6 -59,-19 -18,-14 -27,-32 -27,-54zm207 67l0 -212 78 0c49,0 74,19 74,58 0,19 -9,33 -26,42 10,4 19,11 25,20 6,10 10,20 10,30 0,22 -8,38 -24,48 -14,10 -32,14 -54,14l-83 0zm76 -178l-38 0 0 53 38 0c26,0 39,-9 39,-29 0,-16 -13,-24 -39,-24zm-38 87l0 56 42 0c27,0 40,-9 40,-27 0,-20 -13,-29 -40,-29l-42 0zm185 -15c0,20 6,37 19,51 13,14 30,22 50,22 19,0 36,-8 49,-22 13,-14 20,-31 20,-51 0,-21 -7,-38 -20,-53 -13,-14 -30,-21 -50,-21 -20,0 -37,7 -49,21 -13,15 -19,32 -19,53zm178 -3c0,31 -10,58 -32,80 -21,23 -47,35 -77,35 -31,0 -57,-11 -78,-33 -21,-22 -32,-48 -32,-79 0,-30 11,-57 32,-79 21,-23 46,-35 76,-35 29,0 55,11 78,33 22,22 33,48 33,78zm12 73l22 0 61 -176 39 0 61 176 22 0 0 81 -38 0 0 -45 -129 0 0 45 -38 0 0 -81zm102 -123l-39 123 79 0 -40 -123zm284 85l42 0c-18,53 -52,80 -103,80 -31,0 -57,-11 -78,-32 -20,-22 -30,-48 -30,-80 0,-32 10,-58 31,-80 21,-21 48,-32 79,-32 51,0 84,26 101,77l-42 0c-12,-26 -33,-39 -62,-39 -20,0 -36,7 -48,22 -13,14 -19,31 -19,52 0,20 7,37 20,52 13,15 29,22 48,22 30,0 51,-14 61,-42zm151 74l-40 0 0 -175 -56 0 0 -37 152 0 0 37 -56 0 0 175zm80 0l0 -212 79 0c49,0 73,19 73,58 0,19 -8,33 -25,42 10,4 18,11 25,20 6,10 9,20 9,30 0,22 -8,38 -24,48 -13,10 -31,14 -53,14l-84 0zm77 -178l-39 0 0 53 39 0c25,0 38,-9 38,-29 0,-16 -13,-24 -38,-24zm-39 87l0 56 43 0c27,0 40,-9 40,-27 0,-20 -13,-29 -40,-29l-43 0zm185 -15c0,20 7,37 20,51 13,14 30,22 49,22 20,0 36,-8 50,-22 13,-14 19,-31 19,-51 0,-21 -6,-38 -19,-53 -14,-14 -30,-21 -51,-21 -20,0 -36,7 -49,21 -12,15 -19,32 -19,53zm179 -3c0,31 -11,58 -32,80 -21,23 -47,35 -78,35 -30,0 -56,-11 -77,-33 -22,-22 -32,-48 -32,-79 0,-30 10,-57 31,-79 21,-23 47,-35 76,-35 30,0 56,11 78,33 23,22 34,48 34,78zm227 109l-39 0 0 -175 -56 0 0 -37 151 0 0 37 -56 0 0 175zm145 -7l-83 -205 42 0 62 156 59 -156 42 0 -118 304 -41 0 37 -99zm179 -100c0,20 6,37 20,52 13,15 30,22 49,22 20,0 37,-7 51,-21 13,-14 20,-31 20,-51 0,-20 -6,-38 -20,-52 -14,-15 -31,-22 -51,-22 -19,0 -35,7 -49,22 -14,15 -20,31 -20,50zm74 113c-29,0 -53,-10 -73,-30l0 116 -39 0 0 -304 39 0 0 25c20,-20 43,-30 70,-30 31,0 58,11 79,32 21,22 31,48 31,80 0,22 -6,43 -18,62 -12,19 -27,33 -47,41 -12,5 -26,8 -42,8zm299 -80l43 0c-18,53 -53,80 -103,80 -32,0 -58,-11 -78,-32 -21,-22 -31,-48 -31,-80 0,-32 11,-58 32,-80 21,-21 47,-32 78,-32 51,0 85,26 102,77l-43 0c-12,-26 -32,-39 -62,-39 -19,0 -35,7 -48,22 -12,14 -18,31 -18,52 0,20 6,37 19,52 13,15 29,22 49,22 30,0 50,-14 60,-42zm113 -15l0 89 -39 0 0 -212 39 0 0 87 97 0 0 -87 39 0 0 212 -39 0 0 -89 -97 0zm210 -18c0,20 7,38 21,52 14,15 31,22 51,22 18,0 34,-7 48,-22 14,-15 21,-31 21,-50 0,-20 -7,-37 -20,-52 -14,-15 -30,-23 -50,-23 -20,0 -36,7 -50,22 -14,14 -21,31 -21,51zm179 107l-38 0 0 -26c-20,20 -44,31 -71,31 -32,0 -58,-11 -79,-32 -21,-22 -32,-48 -32,-80 0,-31 11,-57 32,-78 21,-22 46,-33 76,-33 29,0 53,10 72,30l0 -24 40 0 0 212zm81 -107c0,20 7,37 20,52 14,15 30,22 50,22 19,0 36,-7 50,-21 14,-14 21,-31 21,-51 0,-20 -7,-38 -21,-52 -13,-15 -30,-22 -51,-22 -18,0 -35,7 -48,22 -14,15 -21,31 -21,50zm74 113c-28,0 -53,-10 -72,-30l0 116 -40 0 0 -304 40 0 0 25c20,-20 43,-30 69,-30 32,0 58,11 79,32 21,22 31,48 31,80 0,22 -6,43 -17,62 -12,19 -28,33 -47,41 -13,5 -27,8 -43,8zm183 -6l-45 0 57 -84c-40,-5 -60,-26 -60,-63 0,-22 8,-39 23,-50 13,-10 31,-15 54,-15l83 0 0 212 -39 0 0 -111 -73 111zm73 -116l0 -60 -41 0c-27,0 -40,9 -40,29 0,14 6,23 17,27 7,3 19,4 36,4l28 0zm182 116l0 -106 -77 106 -51 0 86 -112 -86 -100 46 0 82 99 0 -99 39 0 0 99 82 -99 46 0 -85 100 85 112 -50 0 -78 -106 0 106 -39 0zm274 -180c-16,0 -30,5 -42,14 -12,10 -20,23 -25,39l131 0c-10,-36 -32,-53 -64,-53zm57 112l44 0c-21,49 -55,74 -102,74 -30,0 -55,-11 -77,-33 -21,-23 -32,-49 -32,-79 0,-31 11,-57 32,-79 21,-23 46,-34 77,-34 23,0 44,7 62,20 17,13 30,30 38,52 5,15 8,34 8,56l-175 0c3,17 11,31 23,42 13,11 27,17 44,17 25,0 45,-12 58,-36zm122 -21l0 89 -39 0 0 -212 39 0 0 87 96 0 0 -87 39 0 0 212 -39 0 0 -89 -96 0zm215 89l-36 0 0 -212 39 0 0 150 109 -150 36 0 0 212 -39 0 0 -151 -109 151zm233 0l-45 0 56 -84c-39,-5 -59,-26 -59,-63 0,-22 8,-39 23,-50 13,-10 31,-15 54,-15l83 0 0 212 -39 0 0 -111 -73 111zm73 -116l0 -60 -41 0c-27,0 -40,9 -40,29 0,14 6,23 17,27 7,3 19,4 36,4l28 0z"/>
        <path class="fil0" d="M4236 1170c49,0 89,49 89,108 0,60 -40,108 -89,108 -48,0 -88,-48 -88,-108 0,-59 40,-108 88,-108zm-113 561l-205 338 389 1c0,-3 4,-6 7,-10 3,-6 7,-14 12,-22 14,-25 34,-61 60,-103 74,-120 179,-298 247,-464 17,-42 24,-90 27,-135 7,-96 -10,-188 -49,-277 -39,-90 -116,-164 -182,-199 -209,-108 -467,-10 -576,222 -109,233 -31,517 184,616 27,13 58,24 86,33z"/>
        <path class="fil0" d="M5193 1170c48,0 88,49 88,108 0,60 -40,108 -88,108 -49,0 -89,-48 -89,-108 0,-59 40,-108 89,-108zm-114 561l-204 338 389 1c0,-3 3,-6 6,-10 3,-6 7,-14 12,-22 15,-25 35,-61 61,-103 73,-120 179,-298 246,-464 17,-42 25,-90 28,-135 6,-96 -10,-188 -49,-277 -40,-90 -116,-164 -183,-199 -209,-108 -466,-10 -575,222 -109,233 -32,517 183,616 27,13 59,24 86,33z"/>
    </g>
</svg>
